<?xml version="1.0" encoding="utf-8"?>
<!-- Generated by IcoMoon.io -->
<!DOCTYPE svg PUBLIC "-//W3C//DTD SVG 1.1//EN" "http://www.w3.org/Graphics/SVG/1.1/DTD/svg11.dtd">
<svg version="1.1" xmlns="http://www.w3.org/2000/svg" xmlns:xlink="http://www.w3.org/1999/xlink" width="20" height="20" viewBox="0 0 20 20">
<path d="M18.5 6h-1c-0.276 0-0.5 0.224-0.5 0.5v1.5h-1v-1.5c0-0.276-0.224-0.5-0.5-0.5h-1.5v-0.5c0-0.276-0.224-0.5-0.5-0.5h-3.5v-1h2.5c0.276 0 0.5-0.224 0.5-0.5s-0.224-0.5-0.5-0.5h-6c-0.276 0-0.5 0.224-0.5 0.5s0.224 0.5 0.5 0.5h2.5v1h-3.5c-0.276 0-0.5 0.224-0.5 0.5v0.5h-2.5c-0.276 0-0.5 0.224-0.5 0.5v3.5h-1v-2.5c0-0.276-0.224-0.5-0.5-0.5s-0.5 0.224-0.5 0.5v6c0 0.276 0.224 0.5 0.5 0.5s0.5-0.224 0.5-0.5v-2.5h1v3.5c0 0.276 0.224 0.5 0.5 0.5h2.793l1.854 1.854c0.094 0.094 0.221 0.146 0.354 0.146h8c0.276 0 0.5-0.224 0.5-0.5v-2.5h1v1.5c0 0.276 0.224 0.5 0.5 0.5h1c0.827 0 1.5-0.673 1.5-1.5v-7c0-0.827-0.673-1.5-1.5-1.5zM19 14.5c0 0.276-0.224 0.5-0.5 0.5h-0.5v-1.5c0-0.276-0.224-0.5-0.5-0.5h-2c-0.276 0-0.5 0.224-0.5 0.5v2.5h-7.293l-1.854-1.854c-0.094-0.094-0.221-0.146-0.354-0.146h-2.5v-7h2.5c0.276 0 0.5-0.224 0.5-0.5v-0.5h7v0.5c0 0.276 0.224 0.5 0.5 0.5h1.5v1.5c0 0.276 0.224 0.5 0.5 0.5h2c0.276 0 0.5-0.224 0.5-0.5v-1.5h0.5c0.276 0 0.5 0.224 0.5 0.5v7z" fill="#00a4ff"></path>
</svg>
