<svg xmlns="http://www.w3.org/2000/svg" viewBox="0 0 787.97 163.46"><defs><style>.cls-1{fill:#fff;}</style></defs><title>Asset 5</title><g id="Layer_2" data-name="Layer 2"><g id="Layer_3" data-name="Layer 3"><path class="cls-1" d="M350.68,86.27V1.48h16.14V32.75a23.29,23.29,0,0,1,18.94-9.41C401.4,23.34,413,35.55,413,55.51c0,20.59-11.7,32.28-27.21,32.28a23.83,23.83,0,0,1-18.94-9.4v7.88ZM380.8,73.43c9.28,0,15.51-7.25,15.51-17.92s-6.23-17.8-15.51-17.8a18.06,18.06,0,0,0-14,7.12V66.56C369.62,70.51,375.46,73.43,380.8,73.43Z"/><path class="cls-1" d="M425.17,86.27V1.48h16.14V86.27Z"/><path class="cls-1" d="M498.77,86.27V78.51a29.18,29.18,0,0,1-21.61,9.28c-13.47,0-19.83-7.37-19.83-19.32V24.87h16.14V62.12c0,8.51,4.45,11.31,11.32,11.31a18.07,18.07,0,0,0,14-7V24.87h16.15v61.4Z"/><path class="cls-1" d="M527,55.51c0-17.8,13.22-32.17,31.78-32.17S589.53,37.07,589.53,57v3.81H543.9c1.14,7.5,7.24,13.73,17.67,13.73,5.21,0,12.33-2.16,16.27-6l7.25,10.68c-6.11,5.59-15.77,8.51-25.3,8.51C541.1,87.79,527,75.21,527,55.51Zm31.78-18.95c-10,0-14.36,7-15,13.1H574C573.52,43.81,569.45,36.56,558.77,36.56Z"/><path class="cls-1" d="M595.89,78.26l7-11.7c4.58,4.33,13.6,8.52,21.23,8.52,7,0,10.3-2.67,10.3-6.48,0-10-36.36-1.78-36.36-25.93,0-10.3,8.9-19.33,25.17-19.33a39.11,39.11,0,0,1,24.66,8.39L641.4,43.17c-3.69-3.81-10.68-7.11-18.18-7.11-5.85,0-9.66,2.54-9.66,6,0,9,36.48,1.4,36.48,26.19,0,11.31-9.66,19.57-26.69,19.57C612.67,87.79,602.37,84.23,595.89,78.26Z"/><path class="cls-1" d="M701.65,86.27,685.38,62.62,678,70.51V86.27H661.86V1.48H678V52.2l23.26-27.33H721.1L696.82,52.71l25,33.56Z"/><path class="cls-1" d="M730.26,95.8a13.78,13.78,0,0,0,5.08,1c4.2,0,7-1.14,8.52-4.45L746.15,87,721.23,24.87h17.29l16,42.71,16.14-42.71H788L759.11,96.31c-4.57,11.57-12.71,14.62-23.26,14.87a34.61,34.61,0,0,1-7.88-1Z"/><path class="cls-1" d="M393.16,162.54V139.28c0-3.44-1.52-5.88-5.49-5.88a9.81,9.81,0,0,0-7.63,4.27v24.87h-9.76V139.28c0-3.44-1.53-5.88-5.49-5.88-3.36,0-6.18,2.29-7.63,4.27v24.87h-9.69V125.7h9.69v4.73a16.49,16.49,0,0,1,12-5.65c5.42,0,8.93,2.52,10.22,6.64a15.8,15.8,0,0,1,12.67-6.64c6.78,0,10.83,3.59,10.83,11.14v26.62Z"/><path class="cls-1" d="M410.17,144.08c0-10.45,7.32-19.3,19.45-19.3s19.53,8.85,19.53,19.3-7.33,19.38-19.53,19.38S410.17,154.53,410.17,144.08Zm28.91,0c0-5.72-3.36-10.68-9.46-10.68s-9.38,5-9.38,10.68,3.35,10.76,9.38,10.76S439.08,149.88,439.08,144.08Z"/><path class="cls-1" d="M458.37,153.31V134.17h-6.1V125.7h6.1V115.63h9.69V125.7h7.48v8.47h-7.48v16.55c0,2.36,1.22,4.12,3.36,4.12a4.85,4.85,0,0,0,3.35-1.15l2.06,7.4c-1.45,1.3-4,2.37-8.08,2.37C462,163.46,458.37,160,458.37,153.31Z"/><path class="cls-1" d="M479.81,144.08c0-10.45,7.32-19.3,19.45-19.3s19.52,8.85,19.52,19.3-7.32,19.38-19.52,19.38S479.81,154.53,479.81,144.08Zm28.91,0c0-5.72-3.36-10.68-9.46-10.68s-9.39,5-9.39,10.68,3.36,10.76,9.39,10.76S508.72,149.88,508.72,144.08Z"/><path class="cls-1" d="M526,162.54V125.7h9.68v5c2.67-3.21,7.17-5.88,11.75-5.88v9.46a12.51,12.51,0,0,0-2.67-.23c-3.2,0-7.47,1.83-9.08,4.2v24.33Z"/><path class="cls-1" d="M570.72,144.08c0-11.29,8.24-19.3,19.53-19.3,7.55,0,12.13,3.28,14.57,6.64l-6.33,6a9,9,0,0,0-7.78-4c-5.88,0-10,4.27-10,10.68s4.12,10.76,10,10.76a9.19,9.19,0,0,0,7.78-4.05l6.33,6c-2.44,3.36-7,6.72-14.57,6.72C579,163.46,570.72,155.45,570.72,144.08Z"/><path class="cls-1" d="M608.78,144.08c0-10.45,7.32-19.3,19.45-19.3s19.53,8.85,19.53,19.3-7.32,19.38-19.53,19.38S608.78,154.53,608.78,144.08Zm28.91,0c0-5.72-3.36-10.68-9.46-10.68s-9.38,5-9.38,10.68,3.36,10.76,9.38,10.76S637.69,149.88,637.69,144.08Z"/><path class="cls-1" d="M653.48,157.2a6.18,6.18,0,1,1,6.17,6.18A6.25,6.25,0,0,1,653.48,157.2Z"/><path class="cls-1" d="M283.29,92.19a35.3,35.3,0,0,0-4.26.27A48.35,48.35,0,0,0,224.21,67,69,69,0,0,0,86.26,68a48.36,48.36,0,0,0-63.4,45.94c0,.88,0,1.75.07,2.62h-.07A22.87,22.87,0,0,0,0,140.25c.45,12.39,11,22,23.4,22H42.92a2.84,2.84,0,0,0,2.82-2.83v0a29.25,29.25,0,0,1,58.49,0v.1a2.76,2.76,0,0,0,2.75,2.76h99.11a2.77,2.77,0,0,0,2.75-2.83v0a29.25,29.25,0,0,1,58.49,0v0a2.78,2.78,0,0,0,2.76,2.83h12.47c19.1,0,35.24-15,35.76-34.06A35.05,35.05,0,0,0,283.29,92.19Z"/></g></g></svg>