<?xml version="1.0" encoding="utf-8"?>
<!-- Generated by IcoMoon.io -->
<!DOCTYPE svg PUBLIC "-//W3C//DTD SVG 1.1//EN" "http://www.w3.org/Graphics/SVG/1.1/DTD/svg11.dtd">
<svg version="1.1" xmlns="http://www.w3.org/2000/svg" xmlns:xlink="http://www.w3.org/1999/xlink" width="20" height="20" viewBox="0 0 20 20">
<path d="M0.501 20c-0.034 0-0.069-0.003-0.103-0.011-0.27-0.057-0.443-0.322-0.386-0.592l4-19c0.057-0.27 0.322-0.443 0.592-0.386s0.443 0.322 0.386 0.592l-4 19c-0.050 0.236-0.257 0.397-0.489 0.397z" fill="#00a4ff"></path>
<path d="M18.499 20c-0.231 0-0.439-0.162-0.489-0.397l-4-19c-0.057-0.27 0.116-0.535 0.386-0.592s0.535 0.116 0.592 0.386l4 19c0.057 0.27-0.116 0.535-0.386 0.592-0.035 0.007-0.069 0.011-0.103 0.011z" fill="#00a4ff"></path>
<path d="M9.5 3c-0.276 0-0.5-0.224-0.5-0.5v-2c0-0.276 0.224-0.5 0.5-0.5s0.5 0.224 0.5 0.5v2c0 0.276-0.224 0.5-0.5 0.5z" fill="#00a4ff"></path>
<path d="M9.5 10c-0.276 0-0.5-0.224-0.5-0.5v-4c0-0.276 0.224-0.5 0.5-0.5s0.5 0.224 0.5 0.5v4c0 0.276-0.224 0.5-0.5 0.5z" fill="#00a4ff"></path>
<path d="M9.5 20c-0.276 0-0.5-0.224-0.5-0.5v-6c0-0.276 0.224-0.5 0.5-0.5s0.5 0.224 0.5 0.5v6c0 0.276-0.224 0.5-0.5 0.5z" fill="#00a4ff"></path>
</svg>
